<svg xmlns="http://www.w3.org/2000/svg" viewBox="0 0 48 48">
    <path class="changeme" d="M24 1C11.32 1 1 11.32 1 24s10.32 23 23 23 23-10.32 23-23S36.68 1 24 1zm0 3.538c10.77 0 19.46 8.692 19.46 19.46S34.77 43.458 24 43.458s-19.46-8.69-19.46-19.46C4.538 13.228 13.23 4.538 24 4.538zm-.055 5.75a1.3 1.3 0 00-.443.166l-.884.498c-.52.302-.69.97-.387 1.493l7.58 12.99 2.76-1.61L25 10.835c-.23-.39-.63-.61-1.06-.55zM21.623 14.6a1.14 1.14 0 00-1.106.553l-.94 1.659 2.875 1.659.94-1.66a1.09 1.09 0 00-.387-1.492l-.995-.553c-.13-.076-.247-.147-.388-.166zm-2.267 2.599l-6.69 11.44 2.82 1.659 6.69-11.44-2.82-1.659zm-9.51 5.197v3.207h4.036l1.88-3.207H9.846zm10.73 0l-1.77 3.207h10.34l-1.768-3.207h-6.8zm11.83 0l1.714 3.207h3.98v-3.207h-5.694zm.497 1.99l-2.764 1.603 1.603 2.764 2.764-1.603-1.603-2.764zm1.438 3.483a.85.85 0 00-.276.11c-.451.257-1.098.648-1.493.885-.741.444-.168 1.764 0 2.046.96 1.608 1.96 1.404 2.709 2.543.409.623.258.899.387 1.106.048.078.213.144.276.055 1.152-1.594.835-4.365 0-5.584-.339-.5-.952-1.268-1.603-1.16zm-22.06 1.382L10.9 34.448c-.024.094.028.229.11.276.084.05.208.012.277-.055l3.87-3.76-2.875-1.659z"/>
</svg>
   