<?xml version="1.0" encoding="utf-8"?>
<!-- Generator: Adobe Illustrator 25.3.1, SVG Export Plug-In . SVG Version: 6.00 Build 0)  -->
<svg version="1.1" id="Calque_1" xmlns="http://www.w3.org/2000/svg" xmlns:xlink="http://www.w3.org/1999/xlink" x="0px" y="0px"
	 viewBox="0 0 48 48" style="enable-background:new 0 0 48 48;" xml:space="preserve">
<g>
	<path d="M37,26.1c-0.5,0-0.8,0.4-0.8,0.8v4c0,2.8-2.3,5.2-5.2,5.2H16c-2.8,0-5.2-2.3-5.2-5.2v-4c0-0.5-0.4-0.8-0.8-0.8
		s-0.8,0.4-0.8,0.8v4c0,3.8,3.1,6.8,6.8,6.8h15c3.8,0,6.8-3.1,6.8-6.8v-4C37.8,26.4,37.5,26.1,37,26.1z"/>
	<path d="M22.8,30.2c0.3,0.3,0.9,0.3,1.3,0l6.6-6.6c0.3-0.3,0.3-0.9,0-1.3c-0.3-0.3-0.8-0.3-1.2,0l-5.2,5.2V10.1
		c0-0.5-0.4-0.8-0.8-0.8s-0.8,0.4-0.8,0.8v17.4l-5.2-5.2c-0.3-0.3-0.9-0.3-1.3,0c-0.3,0.3-0.3,0.9,0,1.3L22.8,30.2z"/>
</g>
</svg>
