<?xml version="1.0" encoding="utf-8"?>
<!-- Generator: Adobe Illustrator 25.3.1, SVG Export Plug-In . SVG Version: 6.00 Build 0)  -->
<svg version="1.1" id="Layer_3" xmlns="http://www.w3.org/2000/svg" xmlns:xlink="http://www.w3.org/1999/xlink" x="0px" y="0px"
	 viewBox="0 0 48 48" style="enable-background:new 0 0 48 48;" xml:space="preserve">
<style type="text/css">
	.st0{fill:#1D1D1B;}
</style>
<g>
	<g id="Icon_:_Player_Pause">
		<g id="Page_1_Copy_7" transform="translate(0 0)">
			<g id="Group_4">
				<path id="Fill_3-2" class="st0" d="M19.7,33.4c-0.6,0-1.1-0.5-1.1-1.1v-17c0-0.6,0.5-1.1,1.1-1.1c0.6,0,1.1,0.5,1.1,1.1v17
					C20.7,33,20.3,33.4,19.7,33.4"/>
				<path id="Fill_5_3_" class="st0" d="M28.3,33.4c-0.6,0-1.1-0.5-1.1-1.1v-17c0-0.6,0.5-1.1,1.1-1.1c0.6,0,1.1,0.5,1.1,1.1v17
					C29.4,33,28.9,33.4,28.3,33.4"/>
			</g>
		</g>
	</g>
</g>
</svg>
