<svg id="Groupe_2238" data-name="Groupe 2238" xmlns="http://www.w3.org/2000/svg" xmlns:xlink="http://www.w3.org/1999/xlink" viewBox="0 0 335 255">
  <defs>
    <clipPath id="clip-path">
      <rect id="Rectangle_1811" data-name="Rectangle 1811" width="335" height="255" fill="none"/>
    </clipPath>
  </defs>
  <rect id="Rectangle_1808" data-name="Rectangle 1808" width="36.028" height="9.531" transform="translate(129.323 165.178)" fill="#ebebeb"/>
  <g id="Groupe_2237" data-name="Groupe 2237">
    <g id="Groupe_2236" data-name="Groupe 2236" clip-path="url(#clip-path)">
      <path id="Tracé_4642" data-name="Tracé 4642" d="M150.117,184.751a1.057,1.057,0,0,1,0-.178v-.488c.01-2.794-.026-4.946-.059-8.872l.111.118-36.028.067.185-.185v9.531l-.178-.186,25.675.082,7.576.052h.089l-7.539.052-25.8.081h-.185v-9.6l.185-.178,36.028.067h.111v.111c0,3.014-.044,5.406-.059,7.065V184.6a1.215,1.215,0,0,1-.111.148" fill="#e0e0e0"/>
      <rect id="Rectangle_1809" data-name="Rectangle 1809" width="36.028" height="9.531" transform="translate(290.26 42.109)" fill="#ebebeb"/>
      <path id="Tracé_4643" data-name="Tracé 4643" d="M311.054,61.682v-.666c0-2.791.015-4.947-.059-8.865l.111.111-36.028.067.185-.178v9.516l-.178-.185,25.675.082,7.576.051h.089l-7.539.052-25.8.082h-.177V52.166l.185-.185,36.028.066h.111v.112c0,3.006-.045,5.4-.059,7.057v2.318a.629.629,0,0,1-.119.148" fill="#e0e0e0"/>
      <rect id="Rectangle_1810" data-name="Rectangle 1810" width="36.028" height="9.531" transform="translate(15.359 88.238)" fill="#ebebeb"/>
      <path id="Tracé_4644" data-name="Tracé 4644" d="M36.154,107.826v-.667c0-2.79.017-4.946-.067-8.864l.111.111L.171,98.48c.081-.089-.186.178.185-.185v9.516l-.178-.178,25.675.082,7.583.052h.082l-7.539.052-25.8.081H0V98.31l.185-.185,36.028.074h.119v.111c0,3.007-.052,5.4-.067,7.057v2.318a.606.606,0,0,1-.111.141" fill="#e0e0e0"/>
      <path id="Tracé_4645" data-name="Tracé 4645" d="M228.225,215.7a1.6,1.6,0,0,1,0-.17c.01-3.079-.02-5.211-.067-9.361l.111.111-36.027.074.185-.185V215.7l-.178-.178,25.675.081,7.583.052h.082l-7.539.052-25.8.081h-.178v-9.708l.185-.185,36.028.074h.119v.111c0,3.014-.045,5.4-.059,7.065v2.318c-.112.2-.112.251-.119.244" fill="#e0e0e0"/>
      <path id="Tracé_4646" data-name="Tracé 4646" d="M233.112,206.173a.883.883,0,0,1,0-.178c.012-3.08-.026-5.283-.074-9.353l.133.133-21.728.052.186-.185v9.524l-.171-.171,15.485.082,4.51.044H233.1a2.344,2.344,0,0,1-.393,0h-1.177l-4.444.052-15.6.081h-.178v-9.7c0,.045.348-.348.185-.185l21.647.052h.133v.133c0,2.962-.052,5.325-.074,7.013a14.835,14.835,0,0,1-.089,2.607" fill="#e0e0e0"/>
      <path id="Tracé_4647" data-name="Tracé 4647" d="M82.29,27.061a1.059,1.059,0,0,1,0-.178c0-3.07.021-5.21-.067-9.353l.119.111-36.028.067.178-.178v9.531l-.185-.185,25.675.081,7.583.052h2.607l-.563.1H79.594l-7.538.052-25.8.082h-.193V17.545c.37-.37.1-.1.193-.185l36.028.066h.111v.111c0,3.007-.052,5.4-.067,7.058v2.318a1.281,1.281,0,0,1-.037.148" fill="#e0e0e0"/>
      <path id="Tracé_4648" data-name="Tracé 4648" d="M87.17,17.53c.012-3.17-.024-5.4-.074-9.538l.133.133-21.646.052c-.163.163.222-.222.185-.178v9.516l-.178-.178,15.485.082,4.51.052h1.652a3.221,3.221,0,0,1-.393,0H85.667l-4.444.052-15.6.081h-.3V8.014l.185-.185,21.647.053h.133v.125c0,2.962-.052,5.324-.074,7.02v1.881a5.154,5.154,0,0,1-.037.622" fill="#e0e0e0"/>
      <path id="Tracé_4649" data-name="Tracé 4649" d="M335,254.9c0,.111-73.818.193-164.854.193s-164.87-.082-164.87-.193c-9.263-.25,338.988-.24,329.724,0" fill="#1d1e2c"/>
      <path id="Tracé_4650" data-name="Tracé 4650" d="M291.3,138.555H228.049c0-31.844-26.06-58.5-57.9-58.5s-57.837,26.66-57.837,58.5H48.976c0-66.8,54.35-121.917,121.147-121.917S291.3,71.757,291.3,138.555" fill="#e0e0e0"/>
      <path id="Tracé_4651" data-name="Tracé 4651" d="M170.19,24.524a113.481,113.481,0,0,0-35.746,5.747l15.551,48.291a63.392,63.392,0,0,1,42.115.593l16.137-48.092a113.514,113.514,0,0,0-38.057-6.539" fill="#ff725e"/>
      <path id="Tracé_4652" data-name="Tracé 4652" d="M284.22,138.555a113.386,113.386,0,0,0-19.173-63.206l-40.73,30.437a62.945,62.945,0,0,1,9.16,32.776Z" fill="#b82714"/>
      <path id="Tracé_4653" data-name="Tracé 4653" d="M56.152,138.555H106.88a62.941,62.941,0,0,1,9.294-32.984L75.851,74.564a113.383,113.383,0,0,0-19.7,63.991" fill="#fdefed"/>
      <path id="Tracé_4654" data-name="Tracé 4654" d="M75.851,74.564l40.323,31.007a63.688,63.688,0,0,1,33.8-27.008L134.421,30.272a114.556,114.556,0,0,0-58.57,44.292" fill="#f39c91"/>
      <path id="Tracé_4655" data-name="Tracé 4655" d="M208.247,31.063,192.088,79.154a63.7,63.7,0,0,1,32.244,26.66l40.73-30.436a114.591,114.591,0,0,0-56.815-44.315" fill="#ed6a5a"/>
      <path id="Tracé_4656" data-name="Tracé 4656" d="M233.492,138.673h-.118v-.148a62.861,62.861,0,0,0-13.99-39.56,64.292,64.292,0,0,0-17.639-15.122,65.356,65.356,0,0,0-11.02-5.021,63.189,63.189,0,0,0-83.623,59.7v.192H56v-.192a114.412,114.412,0,0,1,42.33-88.674,122.935,122.935,0,0,1,10.8-7.783,114.631,114.631,0,0,1,22.935-11.153,110.954,110.954,0,0,1,23.313-5.6A113.455,113.455,0,0,1,230.248,41.55a109.143,109.143,0,0,1,11.7,8.346,116.026,116.026,0,0,1,8.946,8.079c2.54,2.585,4.695,4.962,6.487,7.094l2.429,2.963,1.918,2.54c.578.74,1.059,1.429,1.481,2.029l1.022,1.481c.556.8.83,1.215.83,1.215s-.3-.4-.859-1.193l-1.037-1.481c-.415-.592-.9-1.274-1.481-2.014a113.844,113.844,0,0,0-19.832-20.6,109.5,109.5,0,0,0-11.7-8.309,113.436,113.436,0,0,0-74.729-16.063,111.347,111.347,0,0,0-23.246,5.606,114.261,114.261,0,0,0-22.861,11.108A121.1,121.1,0,0,0,98.593,50.17a114.156,114.156,0,0,0-42.211,88.422l-.193-.186h50.728l-.193.193a63.372,63.372,0,0,1,23.039-48.877,62.224,62.224,0,0,1,11.182-7.442,63.111,63.111,0,0,1,49.9-3.725,65.3,65.3,0,0,1,11.108,5.058,64.513,64.513,0,0,1,17.721,15.211,63.173,63.173,0,0,1,14.034,39.768l-.148-.141h50.728l-.119.111a114.669,114.669,0,0,0-.985-14.952,106.68,106.68,0,0,0-2.488-13.034c-.233-1-.479-1.957-.778-2.925-.281-.955-.548-1.9-.814-2.814-.615-1.807-1.133-3.569-1.77-5.184l-.889-2.421-.933-2.266c-.585-1.482-1.237-2.859-1.822-4.17a121.289,121.289,0,0,0-6.25-11.626c-.741-1.267-1.4-2.222-1.8-2.859l-.592-.963s.866,1.282,2.459,3.8a116.77,116.77,0,0,1,6.228,11.56c.592,1.311,1.244,2.681,1.836,4.17l.941,2.266c.3.792.592,1.592.9,2.421.644,1.637,1.17,3.4,1.785,5.184.274.919.548,1.852.822,2.807l.422,1.481c.118.5.244.992.37,1.481a107.076,107.076,0,0,1,2.518,13.056,116.21,116.21,0,0,1,1.014,14.982v.118h-.118" fill="#1d1e2c"/>
      <path id="Tracé_4657" data-name="Tracé 4657" d="M179.4,127.3a11.42,11.42,0,0,0-9.027-5.008L127.823,51.806a2.852,2.852,0,0,0-4.994,2.757l.02.037,37.282,73.189a11.442,11.442,0,0,0,.305,12.346c9.011,12.235,26.976.074,18.96-12.839" fill="#1d1e2c"/>
      <path id="Tracé_4658" data-name="Tracé 4658" d="M314.994,112.325c-15.268,8.012-21.6,25.487-26.578,41.027l-2.289,40.989c8.643-14.707,15.552-32,17.455-48.95l-5.747-.519c8.237-1.423,11.516-10.333,13.308-17.558l-7.02,1.037a26.042,26.042,0,0,0,10.871-16.026" fill="#376c5e"/>
      <path id="Tracé_4659" data-name="Tracé 4659" d="M284.846,203.939s-18.766-22.461-18.514-43.9h7.546s-8.235-5.413-7.583-8.45.874-14.507.874-14.507l6.924,1.733s-5.184-2.6-5.843-6.717,1.518-23.172,1.518-23.172,8.443,8.887,11.042,17.981,9.42,19.706,7.406,47.4-3.37,29.637-3.37,29.637" fill="#5aaa95"/>
      <path id="Tracé_4660" data-name="Tracé 4660" d="M294.362,206.057s20.328-13.545,24.846-30.829l-6.08-1.659s7.805-2.548,7.938-5.132,2.481-11.849,2.481-11.849l-5.924-.118s4.747-.956,6.169-4.118,3.85-18.965,3.85-18.965-8.731,5.3-12.811,12.034-11.886,13.789-16.337,36.509-4.132,24.127-4.132,24.127" fill="#5aaa95"/>
      <path id="Tracé_4661" data-name="Tracé 4661" d="M274.893,128.513a.833.833,0,0,1,.067.23c.044.177.1.4.163.688q.222.955.6,2.666c.656,3.013,1.368,6.367,2,9.842a469.312,469.312,0,0,1,7.605,65.791c.191,4.427.336,8.805.3,12.774v.741a1.423,1.423,0,0,1,0,.244,1.169,1.169,0,0,1,0-.237c-.077-4.275-.281-8.779-.518-13.5a520.7,520.7,0,0,0-7.6-65.754c-.774-4.366-1.649-8.646-2.407-12.544-.052-.289-.1-.519-.126-.7a.786.786,0,0,1-.089-.244" fill="#1d1e2c"/>
      <path id="Tracé_4662" data-name="Tracé 4662" d="M282.247,217.691s-17.173-19.484-22.505-31.251l4.028-1.718c-6.295.96-10.67-4.846-13.7-9.554l5.3-.9a19.7,19.7,0,0,1-11.589-8.975c6.257,1.029,11.923,4.443,16.588,8.768a81.906,81.906,0,0,1,10.02,11.634,38.82,38.82,0,0,1,3.9,6.413c2.889,5.954,7.961,18.418,7.954,25.579" fill="#5aaa95"/>
      <path id="Tracé_4663" data-name="Tracé 4663" d="M319.474,144.724a1.053,1.053,0,0,1-.074.193c-.074.148-.156.34-.267.57l-1.044,2.162c-.918,1.874-2.221,4.592-3.791,7.969-6.337,12.919-17,40.463-20.995,54.289-1.1,3.555-1.97,6.451-2.548,8.45-.3.978-.518,1.748-.688,2.3l-.185.593a1.025,1.025,0,0,1-.075.2.867.867,0,0,1,.038-.208c.037-.163.088-.355.148-.607.148-.555.355-1.333.614-2.325.533-2.015,1.363-4.918,2.437-8.487,3.862-13.867,14.527-41.465,21-54.32,1.614-3.369,2.962-6.072,3.91-7.923l1.111-2.133a8.04,8.04,0,0,1,.407-.726" fill="#1d1e2c"/>
      <path id="Tracé_4664" data-name="Tracé 4664" d="M283.7,226.037a1.982,1.982,0,0,1-.081-.355c-.045-.282-.1-.623-.171-1.037a79.043,79.043,0,0,0-11.589-30.726l-.556-.888a1.692,1.692,0,0,1-.178-.326,2.062,2.062,0,0,1,.237.281l.615.844a69.269,69.269,0,0,1,11.619,30.748c.037.422.074.741.1,1.044a1.094,1.094,0,0,1,.007.415" fill="#1d1e2c"/>
      <path id="Tracé_4665" data-name="Tracé 4665" d="M306.359,221.453H268.776v7.665h3.577l4.065,25.786h22.713l3.792-25.786h3.436Z" fill="#ffcd70"/>
      <path id="Tracé_4666" data-name="Tracé 4666" d="M304.056,229.117c0,.111-7.109.193-15.877.193s-15.878-.082-15.878-.193c-.931-.25,32.687-.24,31.755,0" fill="#1d1e2c"/>
    </g>
  </g>
</svg>
